<svg width="32" height="32" viewBox="0 0 32 32" fill="none" xmlns="http://www.w3.org/2000/svg">
<path d="M3.51076 27.983C0.784229 25.2941 -0.494893 21.2048 0.273868 17.4465C1.03435 13.2257 4.31262 9.54649 8.45253 8.38691C10.4793 10.4431 12.5317 12.4716 14.5677 14.5168C14.987 14.9214 15.3714 15.3618 15.8238 15.7306C14.381 15.7453 12.9354 15.692 11.4945 15.7481C9.50359 15.874 7.8171 17.7518 7.92837 19.7482C7.90998 21.763 9.71693 23.5837 11.7326 23.5718C15.6978 23.581 19.6621 23.5709 23.6254 23.5782C26.2306 26.1861 28.8311 28.7995 31.4501 31.3946C31.0454 31.4718 30.6344 31.4506 30.2261 31.447C24.1119 31.4479 17.9995 31.447 11.8871 31.4479C8.78725 31.4562 5.69014 30.1982 3.51076 27.983Z" fill="#7C4EE4"/>
<path d="M7.72445 7.6922C5.14689 5.13212 2.60888 2.52974 6.00269e-05 0C6.10233 0.0239083 12.2037 0.00367683 18.3059 0.0110332C19.3303 0.0248271 20.3649 -0.0468969 21.3773 0.145293C23.9723 0.503005 26.4303 1.77293 28.2263 3.67828C30.2227 5.74823 31.3905 8.57867 31.4815 11.4496C31.5496 13.8156 30.8801 16.2001 29.5992 18.19C28.092 20.5046 25.7627 22.3345 23.0831 23.0665C21.0821 21.0333 19.0499 19.0287 17.036 17.0065C16.6305 16.6304 16.2902 16.1798 15.8249 15.869C15.904 15.8037 15.9895 15.7486 16.0833 15.7044C17.3625 15.7311 18.6443 15.7274 19.9244 15.7109C21.9107 15.6557 23.6542 13.8404 23.6146 11.8514C23.6726 10.2357 22.5792 8.6835 21.072 8.129C20.4973 7.88071 19.8628 7.87704 19.2476 7.88255C15.5344 7.88623 11.8221 7.88164 8.10975 7.88531C7.95434 7.88623 7.8256 7.82186 7.72445 7.6922Z" fill="#7C4EE4"/>
</svg>
